<svg width="23" height="22" viewBox="0 0 23 22" fill="none" xmlns="http://www.w3.org/2000/svg">
<path d="M11.5049 5.38452C8.39941 5.38452 5.89453 7.8894 5.89453 10.9949C5.89453 14.1003 8.39941 16.6052 11.5049 16.6052C14.6104 16.6052 17.1152 14.1003 17.1152 10.9949C17.1152 7.8894 14.6104 5.38452 11.5049 5.38452ZM11.5049 14.6423C9.49805 14.6423 7.85742 13.0066 7.85742 10.9949C7.85742 8.98315 9.49316 7.34741 11.5049 7.34741C13.5166 7.34741 15.1523 8.98315 15.1523 10.9949C15.1523 13.0066 13.5117 14.6423 11.5049 14.6423ZM18.6533 5.15503C18.6533 5.88257 18.0674 6.46362 17.3447 6.46362C16.6172 6.46362 16.0361 5.87769 16.0361 5.15503C16.0361 4.43237 16.6221 3.84644 17.3447 3.84644C18.0674 3.84644 18.6533 4.43237 18.6533 5.15503ZM22.3691 6.48315C22.2861 4.73022 21.8857 3.17749 20.6016 1.89819C19.3223 0.618896 17.7695 0.218506 16.0166 0.130615C14.21 0.0280762 8.79492 0.0280762 6.98828 0.130615C5.24023 0.213623 3.6875 0.614014 2.40332 1.89331C1.11914 3.17261 0.723633 4.72534 0.635742 6.47827C0.533203 8.28491 0.533203 13.7 0.635742 15.5066C0.71875 17.2595 1.11914 18.8123 2.40332 20.0916C3.6875 21.3708 5.23535 21.7712 6.98828 21.8591C8.79492 21.9617 14.21 21.9617 16.0166 21.8591C17.7695 21.7761 19.3223 21.3757 20.6016 20.0916C21.8809 18.8123 22.2812 17.2595 22.3691 15.5066C22.4717 13.7 22.4717 8.28979 22.3691 6.48315ZM20.0352 17.4451C19.6543 18.4021 18.917 19.1394 17.9551 19.5251C16.5146 20.0964 13.0967 19.9646 11.5049 19.9646C9.91309 19.9646 6.49023 20.0916 5.05469 19.5251C4.09766 19.1443 3.36035 18.407 2.97461 17.4451C2.40332 16.0046 2.53516 12.5867 2.53516 10.9949C2.53516 9.40308 2.4082 5.98022 2.97461 4.54468C3.35547 3.58765 4.09277 2.85034 5.05469 2.4646C6.49512 1.89331 9.91309 2.02515 11.5049 2.02515C13.0967 2.02515 16.5195 1.89819 17.9551 2.4646C18.9121 2.84546 19.6494 3.58276 20.0352 4.54468C20.6064 5.98511 20.4746 9.40308 20.4746 10.9949C20.4746 12.5867 20.6064 16.0095 20.0352 17.4451Z" fill="white"/>
</svg>
