<svg width="25" height="18" viewBox="0 0 25 18" fill="none" xmlns="http://www.w3.org/2000/svg">
<path d="M23.8566 3.27427C23.584 2.2478 22.7808 1.43938 21.761 1.16503C19.9124 0.666504 12.5001 0.666504 12.5001 0.666504C12.5001 0.666504 5.08773 0.666504 3.23917 1.16503C2.21933 1.43942 1.41612 2.2478 1.14351 3.27427C0.648193 5.13482 0.648193 9.01668 0.648193 9.01668C0.648193 9.01668 0.648193 12.8985 1.14351 14.7591C1.41612 15.7856 2.21933 16.5603 3.23917 16.8346C5.08773 17.3332 12.5001 17.3332 12.5001 17.3332C12.5001 17.3332 19.9124 17.3332 21.761 16.8346C22.7808 16.5603 23.584 15.7856 23.8566 14.7591C24.3519 12.8985 24.3519 9.01668 24.3519 9.01668C24.3519 9.01668 24.3519 5.13482 23.8566 3.27427ZM10.0758 12.5411V5.49224L16.2711 9.01676L10.0758 12.5411Z" fill="white"/>
</svg>
