<svg width="36" height="35" viewBox="0 0 36 35" fill="none" xmlns="http://www.w3.org/2000/svg">
<path d="M34.1932 0.483413C33.8628 0.268947 33.4933 0.121686 33.1059 0.0500424C32.7186 -0.0216012 32.3209 -0.0162233 31.9356 0.0658686C31.5503 0.14796 31.1849 0.305158 30.8604 0.528481C30.5359 0.751804 30.2586 1.03688 30.0442 1.36741L13.2342 27.2784L5.03623 19.6984C4.74699 19.431 4.40791 19.2231 4.03835 19.0867C3.66878 18.9503 3.27597 18.8881 2.88235 18.9035C2.08738 18.9346 1.33734 19.2803 0.797225 19.8644C0.257112 20.4486 -0.0288312 21.2233 0.00229988 22.0183C0.0334309 22.8133 0.379086 23.5633 0.963225 24.1034L11.7272 34.0554C11.7272 34.0554 12.0362 34.3214 12.1792 34.4144C12.5097 34.629 12.8792 34.7764 13.2667 34.8482C13.6542 34.9199 14.052 34.9145 14.4374 34.8324C14.8228 34.7504 15.1883 34.5931 15.5129 34.3697C15.8375 34.1463 16.1149 33.8611 16.3292 33.5304L35.0772 4.63241C35.2917 4.30197 35.439 3.93251 35.5106 3.54513C35.5822 3.15776 35.5769 2.76007 35.4948 2.37478C35.4127 1.98948 35.2555 1.62414 35.0322 1.29961C34.8088 0.975086 34.5238 0.697739 34.1932 0.483413Z" fill="black"/>
</svg>
