<svg width="31" height="37" viewBox="0 0 31 37" fill="none" xmlns="http://www.w3.org/2000/svg">
<path d="M15.3982 0C15.0667 0 14.7487 0.131696 14.5143 0.366116C14.2799 0.600537 14.1482 0.918479 14.1482 1.25V6.25C14.1482 6.58152 14.2799 6.89946 14.5143 7.13388C14.7487 7.3683 15.0667 7.5 15.3982 7.5C15.7297 7.5 16.0477 7.3683 16.2821 7.13388C16.5165 6.89946 16.6482 6.58152 16.6482 6.25V1.25C16.6482 0.918479 16.5165 0.600537 16.2821 0.366116C16.0477 0.131696 15.7297 0 15.3982 0ZM27.5194 4.12875C27.2766 3.88594 26.9472 3.74953 26.6038 3.74953C26.2604 3.74953 25.931 3.88594 25.6882 4.12875L22.0269 7.79125C21.901 7.91017 21.8001 8.05315 21.7304 8.21174C21.6606 8.37033 21.6234 8.5413 21.621 8.71453C21.6185 8.88776 21.6508 9.05972 21.716 9.22024C21.7812 9.38076 21.8779 9.52656 22.0004 9.64902C22.123 9.77148 22.2689 9.86811 22.4294 9.93318C22.59 9.99826 22.762 10.0305 22.9352 10.0279C23.1084 10.0253 23.2794 9.98795 23.4379 9.91811C23.5964 9.84826 23.7394 9.74732 23.8582 9.62125L27.5194 5.95875C27.7619 5.71595 27.898 5.38686 27.898 5.04375C27.898 4.70064 27.7619 4.37155 27.5194 4.12875ZM5.10819 4.12875C4.86428 3.89113 4.53659 3.75915 4.19607 3.76138C3.85556 3.7636 3.52962 3.89986 3.28884 4.14065C3.04805 4.38143 2.9118 4.70737 2.90957 5.04788C2.90734 5.3884 3.03933 5.71609 3.27694 5.96L6.93944 9.62125C7.18461 9.85233 7.51018 9.97878 7.84704 9.97374C8.18391 9.96871 8.50556 9.83259 8.7437 9.59428C8.98185 9.35597 9.11775 9.03423 9.12255 8.69736C9.12736 8.36049 9.00069 8.03501 8.76944 7.79L5.10694 4.12875H5.10819ZM5.35694 26.25L7.72819 16.0875C8.13233 14.3564 9.11016 12.813 10.5027 11.7081C11.8952 10.6032 13.6206 10.0019 15.3982 10.0019C17.1758 10.0019 18.9012 10.6032 20.2937 11.7081C21.6862 12.813 22.6641 14.3564 23.0682 16.0875L25.4394 26.25H26.4794C28.4994 26.25 30.3982 27.8375 30.3982 30.0875V32.4125C30.3982 34.65 28.5257 36.25 26.4794 36.25H4.31694C2.29819 36.25 0.398193 34.6625 0.398193 32.4125V30.0875C0.398193 27.8375 2.29819 26.25 4.31694 26.25H5.35694ZM20.7619 13.96C20.0369 12.7038 18.6394 12.1538 17.6419 12.73C16.6444 13.305 16.4232 14.79 17.1482 16.0462C17.8732 17.3013 19.2694 17.8525 20.2669 17.2763C21.2657 16.7 21.4869 15.215 20.7619 13.96ZM26.4794 33.75C27.2707 33.75 27.8982 33.1463 27.8982 32.4125V30.0875C27.8982 29.3538 27.2582 28.75 26.4794 28.75H4.31694C3.53819 28.75 2.89819 29.3538 2.89819 30.0875V32.4125C2.89819 33.1463 3.53819 33.75 4.31694 33.75H26.4794Z" fill="black"/>
</svg>
