<svg width="30" height="38" viewBox="0 0 30 38" fill="none" xmlns="http://www.w3.org/2000/svg">
<path d="M19.1667 19.9834L20.2167 24.5334C20.3833 25.2501 19.6 25.8167 18.9667 25.4334L15 23.0334L11.0167 25.4334C10.8763 25.5186 10.7139 25.5606 10.5498 25.5541C10.3857 25.5477 10.2271 25.493 10.0938 25.3971C9.96055 25.3011 9.85846 25.1681 9.80028 25.0145C9.74211 24.8609 9.73041 24.6936 9.76667 24.5334L10.8333 20.0001L7.33333 16.9834C7.20758 16.8771 7.11615 16.7359 7.07057 16.5777C7.02499 16.4195 7.02731 16.2513 7.07723 16.0944C7.12716 15.9374 7.22246 15.7988 7.35109 15.696C7.47973 15.5932 7.63594 15.5308 7.8 15.5167L12.4333 15.1167L14.2333 10.8501C14.5167 10.1667 15.4833 10.1667 15.7667 10.8501L17.5667 15.1001L22.2 15.5001C22.3641 15.5142 22.5203 15.5766 22.6489 15.6794C22.7775 15.7822 22.8728 15.9208 22.9228 16.0777C22.9727 16.2346 22.975 16.4028 22.9294 16.561C22.8839 16.7193 22.7924 16.8604 22.6667 16.9667L19.1667 19.9834ZM1.98333 6.45008C0.783333 6.98341 0 8.18342 0 9.50008V17.3334C0 26.5834 6.4 35.2334 15 37.3334C23.6 35.2334 30 26.5834 30 17.3334V9.50008C30 8.18342 29.2167 6.98341 28.0167 6.45008L16.35 1.26675C15.4833 0.883415 14.5 0.883415 13.65 1.26675L1.98333 6.45008Z" fill="black"/>
</svg>
