<svg width="32" height="30" viewBox="0 0 32 30" fill="none" xmlns="http://www.w3.org/2000/svg">
<path d="M0 3C0 2.20435 0.316071 1.44129 0.87868 0.87868C1.44129 0.316071 2.20435 0 3 0H29C29.7956 0 30.5587 0.316071 31.1213 0.87868C31.6839 1.44129 32 2.20435 32 3C32 3.79565 31.6839 4.55871 31.1213 5.12132C30.5587 5.68393 29.7956 6 29 6H3C2.20435 6 1.44129 5.68393 0.87868 5.12132C0.316071 4.55871 0 3.79565 0 3ZM16 12C14.4087 12 12.8826 12.6321 11.7574 13.7574C10.6321 14.8826 10 16.4087 10 18C10 19.5913 10.6321 21.1174 11.7574 22.2426C12.8826 23.3679 14.4087 24 16 24C17.5913 24 19.1174 23.3679 20.2426 22.2426C21.3679 21.1174 22 19.5913 22 18C22 16.4087 21.3679 14.8826 20.2426 13.7574C19.1174 12.6321 17.5913 12 16 12ZM12 18C12 16.9391 12.4214 15.9217 13.1716 15.1716C13.9217 14.4214 14.9391 14 16 14C17.0609 14 18.0783 14.4214 18.8284 15.1716C19.5786 15.9217 20 16.9391 20 18C20 19.0609 19.5786 20.0783 18.8284 20.8284C18.0783 21.5786 17.0609 22 16 22C14.9391 22 13.9217 21.5786 13.1716 20.8284C12.4214 20.0783 12 19.0609 12 18ZM2 8H30V16C30 17.8385 29.6379 19.659 28.9343 21.3576C28.2307 23.0561 27.1995 24.5995 25.8995 25.8995C24.5995 27.1995 23.0561 28.2307 21.3576 28.9343C19.659 29.6379 17.8385 30 16 30C14.1615 30 12.341 29.6379 10.6424 28.9343C8.94387 28.2307 7.40053 27.1995 6.1005 25.8995C4.80048 24.5995 3.76925 23.0561 3.06569 21.3576C2.36212 19.659 2 17.8385 2 16V8ZM16 10C13.8783 10 11.8434 10.8429 10.3431 12.3431C8.84285 13.8434 8 15.8783 8 18C8 20.1217 8.84285 22.1566 10.3431 23.6569C11.8434 25.1571 13.8783 26 16 26C18.1217 26 20.1566 25.1571 21.6569 23.6569C23.1571 22.1566 24 20.1217 24 18C24 15.8783 23.1571 13.8434 21.6569 12.3431C20.1566 10.8429 18.1217 10 16 10Z" fill="black"/>
</svg>
