<svg width="20" height="19" viewBox="0 0 20 19" fill="none" xmlns="http://www.w3.org/2000/svg">
<path d="M0.718774 0.909117C1.07039 0.589789 1.54722 0.4104 2.0444 0.4104C2.54158 0.4104 3.01841 0.589789 3.37002 0.909117L10 6.93215L16.63 0.909117C16.9837 0.598839 17.4573 0.427151 17.9489 0.431032C18.4405 0.434913 18.9108 0.614052 19.2584 0.929866C19.6061 1.24568 19.8033 1.6729 19.8075 2.11951C19.8118 2.56613 19.6228 2.9964 19.2813 3.31765L12.6513 9.34068L19.2813 15.3637C19.6228 15.685 19.8118 16.1152 19.8075 16.5619C19.8033 17.0085 19.6061 17.4357 19.2584 17.7515C18.9108 18.0673 18.4405 18.2465 17.9489 18.2503C17.4573 18.2542 16.9837 18.0825 16.63 17.7723L10 11.7492L3.37002 17.7723C3.0164 18.0825 2.54277 18.2542 2.05115 18.2503C1.55953 18.2465 1.08925 18.0673 0.741615 17.7515C0.393974 17.4357 0.196783 17.0085 0.192511 16.5619C0.188238 16.1152 0.377228 15.685 0.718774 15.3637L7.34877 9.34068L0.718774 3.31765C0.367266 2.99823 0.1698 2.56505 0.1698 2.11338C0.1698 1.66172 0.367266 1.22854 0.718774 0.909117Z" fill="black"/>
</svg>
